<?xml version="1.0" encoding="UTF-8"?>
<!-- Created with Inkscape (http://www.inkscape.org/) -->
<svg width="418.48pt" height="56.088pt" version="1.1" viewBox="0 0 147.63006 19.786655" xmlns="http://www.w3.org/2000/svg" xmlns:cc="http://creativecommons.org/ns#" xmlns:dc="http://purl.org/dc/elements/1.1/" xmlns:rdf="http://www.w3.org/1999/02/22-rdf-syntax-ns#">
 <defs>
  <marker id="marker5221" overflow="visible" orient="auto">
   <path transform="matrix(-1.1,0,0,-1.1,-1.1,0)" d="m8.7186 4.0337-10.926-4.0177 10.926-4.0177c-1.7455 2.3721-1.7354 5.6175-6e-7 8.0354z" fill-rule="evenodd" stroke="#000" stroke-linejoin="round" stroke-width=".625"/>
  </marker>
  <marker id="marker5221-1" overflow="visible" orient="auto">
   <path transform="matrix(-1.1,0,0,-1.1,-1.1,0)" d="m8.7186 4.0337-10.926-4.0177 10.926-4.0177c-1.7455 2.3721-1.7354 5.6175-6e-7 8.0354z" fill-rule="evenodd" stroke="#000" stroke-linejoin="round" stroke-width=".625"/>
  </marker>
  <marker id="marker5221-1-1" overflow="visible" orient="auto">
   <path transform="matrix(-1.1,0,0,-1.1,-1.1,0)" d="m8.7186 4.0337-10.926-4.0177 10.926-4.0177c-1.7455 2.3721-1.7354 5.6175-6e-7 8.0354z" fill-rule="evenodd" stroke="#000" stroke-linejoin="round" stroke-width=".625"/>
  </marker>
  <marker id="marker5221-1-8" overflow="visible" orient="auto">
   <path transform="matrix(-1.1,0,0,-1.1,-1.1,0)" d="m8.7186 4.0337-10.926-4.0177 10.926-4.0177c-1.7455 2.3721-1.7354 5.6175-6e-7 8.0354z" fill-rule="evenodd" stroke="#000" stroke-linejoin="round" stroke-width=".625"/>
  </marker>
  <marker id="marker5221-1-7" overflow="visible" orient="auto">
   <path transform="matrix(-1.1,0,0,-1.1,-1.1,0)" d="m8.7186 4.0337-10.926-4.0177 10.926-4.0177c-1.7455 2.3721-1.7354 5.6175-6e-7 8.0354z" fill-rule="evenodd" stroke="#000" stroke-linejoin="round" stroke-width=".625"/>
  </marker>
  <marker id="marker5221-1-3" overflow="visible" orient="auto">
   <path transform="matrix(-1.1,0,0,-1.1,-1.1,0)" d="m8.7186 4.0337-10.926-4.0177 10.926-4.0177c-1.7455 2.3721-1.7354 5.6175-6e-7 8.0354z" fill-rule="evenodd" stroke="#000" stroke-linejoin="round" stroke-width=".625"/>
  </marker>
 </defs>
 <metadata>
  <rdf:RDF>
   <cc:Work rdf:about="">
    <dc:format>image/svg+xml</dc:format>
    <dc:type rdf:resource="http://purl.org/dc/dcmitype/StillImage"/>
    <dc:title/>
   </cc:Work>
  </rdf:RDF>
 </metadata>
 <g transform="translate(-13.159 -89.957)">
  <rect x="48.275" y="90.033" width="21.181" height="8.7532" fill="none" stroke="#000" stroke-linecap="round" stroke-linejoin="round" stroke-width=".15216"/>
  <g fill="#000000" letter-spacing="0px" stroke-width=".26458px" word-spacing="0px">
   <g font-family="'Fira Code'" font-size="4.9389px">
    <text x="12.561667" y="95.74604" style="line-height:100%" xml:space="preserve"><tspan x="12.561667" y="95.74604">int val[5];</tspan></text>
    <text x="57.384441" y="96.111145" style="line-height:100%" xml:space="preserve"><tspan x="57.384441" y="96.111145">0</tspan></text>
    <text x="78.565712" y="96.138306" style="line-height:100%" xml:space="preserve"><tspan x="78.565712" y="96.138306">4</tspan></text>
    <text x="142.0799" y="95.977509" style="line-height:100%" xml:space="preserve"><tspan x="142.0799" y="95.977509">1</tspan></text>
   </g>
   <text x="113.85682" y="116.59307" font-family="sans-serif" font-size="10.583px" style="line-height:100%" xml:space="preserve"><tspan x="113.85682" y="124.63393"/></text>
  </g>
  <g fill="none" stroke="#000" stroke-linecap="round" stroke-linejoin="round" stroke-width=".15216">
   <rect x="69.457" y="90.033" width="21.181" height="8.7532"/>
   <rect x="90.638" y="90.033" width="21.181" height="8.7532"/>
   <rect x="111.82" y="90.033" width="21.181" height="8.7532"/>
   <rect x="133" y="90.033" width="21.181" height="8.7532"/>
  </g>
  <text x="120.89863" y="95.710243" fill="#000000" font-family="'Fira Code'" font-size="4.9389px" letter-spacing="0px" stroke-width=".26458px" word-spacing="0px" style="line-height:100%" xml:space="preserve"><tspan x="120.89863" y="95.710243">1</tspan></text>
  <text x="99.746986" y="96.512047" fill="#000000" font-family="'Fira Code'" font-size="4.9389px" letter-spacing="0px" stroke-width=".26458px" word-spacing="0px" style="line-height:100%" xml:space="preserve"><tspan x="99.746986" y="96.512047">0</tspan></text>
  <g transform="translate(.033319 3.6912)">
   <text x="46.817936" y="106.05248" fill="#000000" font-family="sans-serif" font-size="4.9389px" font-style="italic" letter-spacing="0px" stroke-width=".26458px" word-spacing="0px" style="line-height:100%" xml:space="preserve"><tspan x="46.817936" y="106.05248">x</tspan></text>
   <path d="m48.242 102.7v-7.0826" fill="none" marker-end="url(#marker5221)" stroke="#000" stroke-width=".35278"/>
  </g>
  <g transform="translate(.22772 3.2414)">
   <text x="64.361092" y="106.50224" fill="#000000" font-family="sans-serif" font-size="4.9389px" font-style="italic" letter-spacing="0px" stroke-width=".26458px" word-spacing="0px" style="line-height:100%" xml:space="preserve"><tspan x="64.361092" y="106.50224">x+4</tspan></text>
   <path d="m69.229 102.7v-7.0826" fill="none" marker-end="url(#marker5221-1)" stroke="#000" stroke-width=".35278"/>
  </g>
  <g transform="translate(-.0413 3.1739)">
   <text x="85.742653" y="106.49982" fill="#000000" font-family="sans-serif" font-size="4.9389px" font-style="italic" letter-spacing="0px" stroke-width=".26458px" word-spacing="0px" style="line-height:100%" xml:space="preserve"><tspan x="85.742653" y="106.49982">x+8</tspan></text>
   <path d="m90.679 102.7v-7.0826" fill="none" marker-end="url(#marker5221-1-1)" stroke="#000" stroke-width=".35278"/>
  </g>
  <g transform="translate(-1.5008 3.2089)">
   <text x="106.85694" y="106.53478" fill="#000000" font-family="sans-serif" font-size="4.9389px" font-style="italic" letter-spacing="0px" stroke-width=".26458px" word-spacing="0px" style="line-height:100%" xml:space="preserve"><tspan x="106.85694" y="106.53478">x+12</tspan></text>
   <path d="m113.32 102.7v-7.0826" fill="none" marker-end="url(#marker5221-1-8)" stroke="#000" stroke-width=".35278"/>
  </g>
  <g transform="translate(-1.4773 3.1739)">
   <text x="127.97124" y="106.49982" fill="#000000" font-family="sans-serif" font-size="4.9389px" font-style="italic" letter-spacing="0px" stroke-width=".26458px" word-spacing="0px" style="line-height:100%" xml:space="preserve"><tspan x="127.97124" y="106.49982">x+16</tspan></text>
   <path d="m134.48 102.7v-7.0826" fill="none" marker-end="url(#marker5221-1-7)" stroke="#000" stroke-width=".35278"/>
  </g>
  <g transform="translate(-1.5295 3.1739)">
   <text x="149.21916" y="106.49982" fill="#000000" font-family="sans-serif" font-size="4.9389px" font-style="italic" letter-spacing="0px" stroke-width=".26458px" word-spacing="0px" style="line-height:100%" xml:space="preserve"><tspan x="149.21916" y="106.49982">x+20</tspan></text>
   <path d="m155.71 102.7v-7.0826" fill="none" marker-end="url(#marker5221-1-3)" stroke="#000" stroke-width=".35278"/>
  </g>
 </g>
</svg>
